<?xml version="1.0" encoding="UTF-8"?>
<svg xmlns="http://www.w3.org/2000/svg" viewBox="0 0 680 400" width="680" height="400" role="img" font-family='system-ui, -apple-system, "Segoe UI", Helvetica, Arial, sans-serif'><rect x="0" y="0" width="680" height="400" fill="#1a1a19"/><title>Service uptime against the SLA</title><line x1="43.81" x2="662.99" y1="350.5" y2="350.5" stroke="#2c2c2a" stroke-width="1"/><line x1="43.81" x2="662.99" y1="292.5" y2="292.5" stroke="#2c2c2a" stroke-width="1"/><line x1="43.81" x2="662.99" y1="233.5" y2="233.5" stroke="#2c2c2a" stroke-width="1"/><line x1="43.81" x2="662.99" y1="175.5" y2="175.5" stroke="#2c2c2a" stroke-width="1"/><line x1="43.81" x2="662.99" y1="117.5" y2="117.5" stroke="#2c2c2a" stroke-width="1"/><line x1="43.81" x2="662.99" y1="59.5" y2="59.5" stroke="#2c2c2a" stroke-width="1"/><line x1="43.81" x2="662.99" y1="350.5" y2="350.5" stroke="#383835" stroke-width="1"/><defs><clipPath id="limnclip18"><rect x="37.81" y="53" width="631.17" height="303.5"/></clipPath></defs><g clip-path="url(#limnclip18)"><path d="M43.81 280.54 L74.55 274.71 L105.29 263.05 L136.03 257.22 L179.94 245.56 L210.68 239.73 L241.42 233.9 L272.16 222.24 L302.9 216.41 L333.64 152.28 L364.38 146.45 L395.12 303.86 L439.03 128.96 L469.77 123.13 L500.51 111.47 L531.25 105.64 L570.77 99.81 L601.51 88.15 L632.25 82.32 L662.99 70.66" fill="none" stroke="#3987e5" stroke-width="2" stroke-linejoin="round" stroke-linecap="round"/><circle cx="43.81" cy="280.54" r="3.5" fill="#3987e5" stroke="#1a1a19" stroke-width="2"/><circle cx="74.55" cy="274.71" r="3.5" fill="#3987e5" stroke="#1a1a19" stroke-width="2"/><circle cx="105.29" cy="263.05" r="3.5" fill="#3987e5" stroke="#1a1a19" stroke-width="2"/><circle cx="136.03" cy="257.22" r="3.5" fill="#3987e5" stroke="#1a1a19" stroke-width="2"/><circle cx="179.94" cy="245.56" r="3.5" fill="#3987e5" stroke="#1a1a19" stroke-width="2"/><circle cx="210.68" cy="239.73" r="3.5" fill="#3987e5" stroke="#1a1a19" stroke-width="2"/><circle cx="241.42" cy="233.9" r="3.5" fill="#3987e5" stroke="#1a1a19" stroke-width="2"/><circle cx="272.16" cy="222.24" r="3.5" fill="#3987e5" stroke="#1a1a19" stroke-width="2"/><circle cx="302.9" cy="216.41" r="3.5" fill="#3987e5" stroke="#1a1a19" stroke-width="2"/><circle cx="333.64" cy="152.28" r="3.5" fill="#3987e5" stroke="#1a1a19" stroke-width="2"/><circle cx="364.38" cy="146.45" r="3.5" fill="#3987e5" stroke="#1a1a19" stroke-width="2"/><circle cx="395.12" cy="303.86" r="3.5" fill="#3987e5" stroke="#1a1a19" stroke-width="2"/><circle cx="439.03" cy="128.96" r="3.5" fill="#3987e5" stroke="#1a1a19" stroke-width="2"/><circle cx="469.77" cy="123.13" r="3.5" fill="#3987e5" stroke="#1a1a19" stroke-width="2"/><circle cx="500.51" cy="111.47" r="3.5" fill="#3987e5" stroke="#1a1a19" stroke-width="2"/><circle cx="531.25" cy="105.64" r="3.5" fill="#3987e5" stroke="#1a1a19" stroke-width="2"/><circle cx="570.77" cy="99.81" r="3.5" fill="#3987e5" stroke="#1a1a19" stroke-width="2"/><circle cx="601.51" cy="88.15" r="3.5" fill="#3987e5" stroke="#1a1a19" stroke-width="2"/><circle cx="632.25" cy="82.32" r="3.5" fill="#3987e5" stroke="#1a1a19" stroke-width="2"/><circle cx="662.99" cy="70.66" r="3.5" fill="#3987e5" stroke="#1a1a19" stroke-width="2"/></g><line x1="43.81" x2="662.99" y1="175.6" y2="175.6" stroke="#c3c2b7" stroke-width="1" stroke-dasharray="5 4"/><text x="660.99" y="170.6" text-anchor="end" font-size="10.5" fill="#c3c2b7">SLA target</text><line x1="364.38" x2="364.38" y1="59" y2="350.5" stroke="#c3c2b7" stroke-width="1" stroke-dasharray="5 4"/><text x="369.38" y="70" text-anchor="start" font-size="10.5" fill="#c3c2b7">failover drill</text><circle cx="395.12" cy="301.53" r="5.5" fill="none" stroke="#ffffff" stroke-width="1.5"/><circle cx="395.12" cy="301.53" r="1.8" fill="#ffffff"/><text x="405.12" y="305.53" text-anchor="start" font-size="11" fill="#ffffff" font-weight="600">the bad Tuesday</text><text x="35.81" y="350.5" dy="0.35em" text-anchor="end" style="font-variant-numeric: tabular-nums" font-size="11" fill="#9c9a93">96%</text><text x="35.81" y="292.2" dy="0.35em" text-anchor="end" style="font-variant-numeric: tabular-nums" font-size="11" fill="#9c9a93">97%</text><text x="35.81" y="233.9" dy="0.35em" text-anchor="end" style="font-variant-numeric: tabular-nums" font-size="11" fill="#9c9a93">98%</text><text x="35.81" y="175.6" dy="0.35em" text-anchor="end" style="font-variant-numeric: tabular-nums" font-size="11" fill="#9c9a93">99%</text><text x="35.81" y="117.3" dy="0.35em" text-anchor="end" style="font-variant-numeric: tabular-nums" font-size="11" fill="#9c9a93">100%</text><text x="35.81" y="59" dy="0.35em" text-anchor="end" style="font-variant-numeric: tabular-nums" font-size="11" fill="#9c9a93">101%</text><text x="43.81" y="367.5" text-anchor="middle" font-size="11" fill="#9c9a93">Jan 2026</text><text x="179.94" y="367.5" text-anchor="middle" font-size="11" fill="#9c9a93">Feb</text><text x="302.9" y="367.5" text-anchor="middle" font-size="11" fill="#9c9a93">Mar</text><text x="439.03" y="367.5" text-anchor="middle" font-size="11" fill="#9c9a93">Apr</text><text x="570.77" y="367.5" text-anchor="middle" font-size="11" fill="#9c9a93">May</text><text x="14" y="27" fill="#ffffff" font-size="15" font-weight="600">Service uptime against the SLA</text><text x="14" y="44" fill="#c3c2b7" font-size="12">reference lines and a callout — .hline() .vline() .flag()</text><text x="14" y="390" font-size="10.5" fill="#9c9a93">simulated data</text></svg>