<?xml version="1.0" encoding="UTF-8"?>
<svg xmlns="http://www.w3.org/2000/svg" viewBox="0 0 680 400" width="680" height="400" role="img" font-family='system-ui, -apple-system, "Segoe UI", Helvetica, Arial, sans-serif'><rect x="0" y="0" width="680" height="400" fill="#1a1a19"/><title>Traffic by channel, thousands of sessions</title><line x1="33.45" x2="612.54" y1="350.5" y2="350.5" stroke="#383835" stroke-width="1"/><line x1="33.45" x2="612.54" y1="277.5" y2="277.5" stroke="#2c2c2a" stroke-width="1"/><line x1="33.45" x2="612.54" y1="204.5" y2="204.5" stroke="#2c2c2a" stroke-width="1"/><line x1="33.45" x2="612.54" y1="131.5" y2="131.5" stroke="#2c2c2a" stroke-width="1"/><line x1="33.45" x2="612.54" y1="58.5" y2="58.5" stroke="#2c2c2a" stroke-width="1"/><line x1="33.45" x2="612.54" y1="350.5" y2="350.5" stroke="#383835" stroke-width="1"/><defs><clipPath id="limnclip10"><rect x="27.45" y="52" width="591.09" height="304.5"/></clipPath></defs><g clip-path="url(#limnclip10)"><path d="M33.45 294.19 L59.09 285.91 L83.09 278.11 L108.73 271.77 L133.55 266.89 L159.19 263.73 L184.01 262.02 L209.66 261.53 L235.3 261.53 L260.12 261.53 L285.77 260.8 L310.58 258.61 L336.23 254.95 L361.87 249.59 L385.04 242.76 L410.68 234.96 L435.5 226.43 L461.15 218.14 L485.96 210.83 L511.61 204.74 L537.26 200.35 L562.07 197.67 L587.72 196.45 L612.54 196.21 L612.54 350.5 L587.72 350.5 L562.07 350.5 L537.26 350.5 L511.61 350.5 L485.96 350.5 L461.15 350.5 L435.5 350.5 L410.68 350.5 L385.04 350.5 L361.87 350.5 L336.23 350.5 L310.58 350.5 L285.77 350.5 L260.12 350.5 L235.3 350.5 L209.66 350.5 L184.01 350.5 L159.19 350.5 L133.55 350.5 L108.73 350.5 L83.09 350.5 L59.09 350.5 L33.45 350.5 Z" fill="#3987e5"/><path d="M33.45 294.19 L59.09 285.91 L83.09 278.11 L108.73 271.77 L133.55 266.89 L159.19 263.73 L184.01 262.02 L209.66 261.53 L235.3 261.53 L260.12 261.53 L285.77 260.8 L310.58 258.61 L336.23 254.95 L361.87 249.59 L385.04 242.76 L410.68 234.96 L435.5 226.43 L461.15 218.14 L485.96 210.83 L511.61 204.74 L537.26 200.35 L562.07 197.67 L587.72 196.45 L612.54 196.21" fill="none" stroke="#1a1a19" stroke-width="2"/><path d="M33.45 265.43 L59.09 253 L83.09 241.3 L108.73 231.55 L133.55 224.24 L159.19 219.61 L184.01 216.93 L209.66 216.19 L235.3 216.19 L260.12 216.19 L285.77 215.22 L310.58 211.81 L336.23 206.44 L361.87 198.16 L385.04 187.92 L410.68 175.98 L435.5 163.3 L461.15 150.87 L485.96 139.66 L511.61 130.64 L537.26 124.06 L562.07 119.91 L587.72 117.96 L612.54 117.72 L612.54 196.21 L587.72 196.45 L562.07 197.67 L537.26 200.35 L511.61 204.74 L485.96 210.83 L461.15 218.14 L435.5 226.43 L410.68 234.96 L385.04 242.76 L361.87 249.59 L336.23 254.95 L310.58 258.61 L285.77 260.8 L260.12 261.53 L235.3 261.53 L209.66 261.53 L184.01 262.02 L159.19 263.73 L133.55 266.89 L108.73 271.77 L83.09 278.11 L59.09 285.91 L33.45 294.19 Z" fill="#eda100"/><path d="M33.45 265.43 L59.09 253 L83.09 241.3 L108.73 231.55 L133.55 224.24 L159.19 219.61 L184.01 216.93 L209.66 216.19 L235.3 216.19 L260.12 216.19 L285.77 215.22 L310.58 211.81 L336.23 206.44 L361.87 198.16 L385.04 187.92 L410.68 175.98 L435.5 163.3 L461.15 150.87 L485.96 139.66 L511.61 130.64 L537.26 124.06 L562.07 119.91 L587.72 117.96 L612.54 117.72" fill="none" stroke="#1a1a19" stroke-width="2"/><path d="M33.45 248.12 L59.09 233.01 L83.09 218.88 L108.73 207.18 L133.55 198.4 L159.19 192.79 L184.01 189.62 L209.66 188.65 L235.3 188.65 L260.12 188.65 L285.77 187.43 L310.58 183.53 L336.23 176.95 L361.87 166.96 L385.04 154.52 L410.68 140.14 L435.5 125.03 L461.15 109.92 L485.96 96.51 L511.61 85.54 L537.26 77.74 L562.07 72.62 L587.72 70.43 L612.54 69.94 L612.54 117.72 L587.72 117.96 L562.07 119.91 L537.26 124.06 L511.61 130.64 L485.96 139.66 L461.15 150.87 L435.5 163.3 L410.68 175.98 L385.04 187.92 L361.87 198.16 L336.23 206.44 L310.58 211.81 L285.77 215.22 L260.12 216.19 L235.3 216.19 L209.66 216.19 L184.01 216.93 L159.19 219.61 L133.55 224.24 L108.73 231.55 L83.09 241.3 L59.09 253 L33.45 265.43 Z" fill="#a16207"/><path d="M33.45 248.12 L59.09 233.01 L83.09 218.88 L108.73 207.18 L133.55 198.4 L159.19 192.79 L184.01 189.62 L209.66 188.65 L235.3 188.65 L260.12 188.65 L285.77 187.43 L310.58 183.53 L336.23 176.95 L361.87 166.96 L385.04 154.52 L410.68 140.14 L435.5 125.03 L461.15 109.92 L485.96 96.51 L511.61 85.54 L537.26 77.74 L562.07 72.62 L587.72 70.43 L612.54 69.94" fill="none" stroke="#1a1a19" stroke-width="2"/></g><text x="25.45" y="350.5" dy="0.35em" text-anchor="end" style="font-variant-numeric: tabular-nums" font-size="11" fill="#9c9a93">0</text><text x="25.45" y="277.38" dy="0.35em" text-anchor="end" style="font-variant-numeric: tabular-nums" font-size="11" fill="#9c9a93">30</text><text x="25.45" y="204.25" dy="0.35em" text-anchor="end" style="font-variant-numeric: tabular-nums" font-size="11" fill="#9c9a93">60</text><text x="25.45" y="131.12" dy="0.35em" text-anchor="end" style="font-variant-numeric: tabular-nums" font-size="11" fill="#9c9a93">90</text><text x="25.45" y="58" dy="0.35em" text-anchor="end" style="font-variant-numeric: tabular-nums" font-size="11" fill="#9c9a93">120</text><text x="33.45" y="367.5" text-anchor="middle" font-size="11" fill="#9c9a93">Jan 2024</text><text x="184.01" y="367.5" text-anchor="middle" font-size="11" fill="#9c9a93">Jul</text><text x="336.23" y="367.5" text-anchor="middle" font-size="11" fill="#9c9a93">Jan 2025</text><text x="485.96" y="367.5" text-anchor="middle" font-size="11" fill="#9c9a93">Jul</text><text x="14" y="27" fill="#ffffff" font-size="15" font-weight="600">Traffic by channel, thousands of sessions</text><rect x="14" y="37" width="10" height="10" rx="2" fill="#3987e5"/><text x="29" y="46" fill="#c3c2b7" font-size="11">Organic</text><rect x="85.82" y="37" width="10" height="10" rx="2" fill="#eda100"/><text x="100.82" y="46" fill="#c3c2b7" font-size="11">Referral</text><rect x="158.28" y="37" width="10" height="10" rx="2" fill="#a16207"/><text x="173.28" y="46" fill="#c3c2b7" font-size="11">Paid</text><line x1="616.54" x2="624.54" y1="93.83" y2="93.83" stroke="#a16207" stroke-width="2.5"/><text x="628.54" y="93.83" dy="0.35em" fill="#c3c2b7" font-size="11">Paid</text><line x1="616.54" x2="624.54" y1="156.96" y2="156.96" stroke="#eda100" stroke-width="2.5"/><text x="628.54" y="156.96" dy="0.35em" fill="#c3c2b7" font-size="11">Referral</text><line x1="616.54" x2="624.54" y1="273.35" y2="273.35" stroke="#3987e5" stroke-width="2.5"/><text x="628.54" y="273.35" dy="0.35em" fill="#c3c2b7" font-size="11">Organic</text><text x="14" y="390" font-size="10.5" fill="#9c9a93">simulated data</text></svg>