<?xml version="1.0" encoding="UTF-8"?>
<svg xmlns="http://www.w3.org/2000/svg" viewBox="0 0 680 400" width="680" height="400" role="img" font-family='system-ui, -apple-system, "Segoe UI", Helvetica, Arial, sans-serif'><rect x="0" y="0" width="680" height="400" fill="#fcfcfb"/><title>Revenue mix, $M</title><line x1="26.97" x2="658.12" y1="350.5" y2="350.5" stroke="#c3c2b7" stroke-width="1"/><line x1="26.97" x2="658.12" y1="259.5" y2="259.5" stroke="#e1e0d9" stroke-width="1"/><line x1="26.97" x2="658.12" y1="167.5" y2="167.5" stroke="#e1e0d9" stroke-width="1"/><line x1="26.97" x2="658.12" y1="76.5" y2="76.5" stroke="#e1e0d9" stroke-width="1"/><line x1="26.97" x2="658.12" y1="350.5" y2="350.5" stroke="#c3c2b7" stroke-width="1"/><defs><clipPath id="limnclip7"><rect x="20.97" y="70" width="638.15" height="286.5"/></clipPath></defs><g clip-path="url(#limnclip7)"><path d="M54.41 350.5 v-71.03 q0 -4 4 -4 h16 q4 0 4 4 v71.03 Z" fill="#2a78d6"/><path d="M133.31 350.5 v-80.18 q0 -4 4 -4 h16 q4 0 4 4 v80.18 Z" fill="#2a78d6"/><path d="M212.2 350.5 v-87.5 q0 -4 4 -4 h16 q4 0 4 4 v87.5 Z" fill="#2a78d6"/><path d="M291.1 350.5 v-102.14 q0 -4 4 -4 h16 q4 0 4 4 v102.14 Z" fill="#2a78d6"/><path d="M369.99 350.5 v-109.46 q0 -4 4 -4 h16 q4 0 4 4 v109.46 Z" fill="#2a78d6"/><path d="M448.88 350.5 v-122.27 q0 -4 4 -4 h16 q4 0 4 4 v122.27 Z" fill="#2a78d6"/><path d="M527.78 350.5 v-131.42 q0 -4 4 -4 h16 q4 0 4 4 v131.42 Z" fill="#2a78d6"/><path d="M606.67 350.5 v-144.23 q0 -4 4 -4 h16 q4 0 4 4 v144.23 Z" fill="#2a78d6"/><path d="M54.41 273.47 v-34.26 q0 -4 4 -4 h16 q4 0 4 4 v34.26 Z" fill="#1baf7a"/><path d="M133.31 264.32 v-32.43 q0 -4 4 -4 h16 q4 0 4 4 v32.43 Z" fill="#1baf7a"/><path d="M212.2 257 v-39.75 q0 -4 4 -4 h16 q4 0 4 4 v39.75 Z" fill="#1baf7a"/><path d="M291.1 242.36 v-47.07 q0 -4 4 -4 h16 q4 0 4 4 v47.07 Z" fill="#1baf7a"/><path d="M369.99 235.04 v-45.24 q0 -4 4 -4 h16 q4 0 4 4 v45.24 Z" fill="#1baf7a"/><path d="M448.88 222.23 v-48.9 q0 -4 4 -4 h16 q4 0 4 4 v48.9 Z" fill="#1baf7a"/><path d="M527.78 213.08 v-52.56 q0 -4 4 -4 h16 q4 0 4 4 v52.56 Z" fill="#1baf7a"/><path d="M606.67 200.27 v-50.73 q0 -4 4 -4 h16 q4 0 4 4 v50.73 Z" fill="#1baf7a"/><path d="M54.41 233.21 v-19.62 q0 -4 4 -4 h16 q4 0 4 4 v19.62 Z" fill="#eda100"/><path d="M133.31 225.89 v-15.96 q0 -4 4 -4 h16 q4 0 4 4 v15.96 Z" fill="#eda100"/><path d="M212.2 211.25 v-21.45 q0 -4 4 -4 h16 q4 0 4 4 v21.45 Z" fill="#eda100"/><path d="M291.1 189.29 v-32.43 q0 -4 4 -4 h16 q4 0 4 4 v32.43 Z" fill="#eda100"/><path d="M369.99 183.8 v-17.79 q0 -4 4 -4 h16 q4 0 4 4 v17.79 Z" fill="#eda100"/><path d="M448.88 167.33 v-14.13 q0 -4 4 -4 h16 q4 0 4 4 v14.13 Z" fill="#eda100"/><path d="M527.78 154.52 v-23.28 q0 -4 4 -4 h16 q4 0 4 4 v23.28 Z" fill="#eda100"/><path d="M606.67 143.54 v-36.09 q0 -4 4 -4 h16 q4 0 4 4 v36.09 Z" fill="#eda100"/></g><text x="18.97" y="350.5" dy="0.35em" text-anchor="end" style="font-variant-numeric: tabular-nums" font-size="11" fill="#898781">0</text><text x="18.97" y="259" dy="0.35em" text-anchor="end" style="font-variant-numeric: tabular-nums" font-size="11" fill="#898781">5</text><text x="18.97" y="167.5" dy="0.35em" text-anchor="end" style="font-variant-numeric: tabular-nums" font-size="11" fill="#898781">10</text><text x="18.97" y="76" dy="0.35em" text-anchor="end" style="font-variant-numeric: tabular-nums" font-size="11" fill="#898781">15</text><text x="66.41" y="367.5" text-anchor="middle" font-size="11" fill="#898781">Q1 24</text><text x="145.31" y="367.5" text-anchor="middle" font-size="11" fill="#898781">Q2 24</text><text x="224.2" y="367.5" text-anchor="middle" font-size="11" fill="#898781">Q3 24</text><text x="303.1" y="367.5" text-anchor="middle" font-size="11" fill="#898781">Q4 24</text><text x="381.99" y="367.5" text-anchor="middle" font-size="11" fill="#898781">Q1 25</text><text x="460.88" y="367.5" text-anchor="middle" font-size="11" fill="#898781">Q2 25</text><text x="539.78" y="367.5" text-anchor="middle" font-size="11" fill="#898781">Q3 25</text><text x="618.67" y="367.5" text-anchor="middle" font-size="11" fill="#898781">Q4 25</text><text x="14" y="27" fill="#0b0b0b" font-size="15" font-weight="600">Revenue mix, $M</text><text x="14" y="45" fill="#52514e" font-size="12">stacked with surface gaps — no outlines</text><rect x="14" y="56" width="10" height="10" rx="2" fill="#2a78d6"/><text x="29" y="65" fill="#52514e" font-size="11">Subscriptions</text><rect x="114.98" y="56" width="10" height="10" rx="2" fill="#1baf7a"/><text x="129.98" y="65" fill="#52514e" font-size="11">Services</text><rect x="190.69" y="56" width="10" height="10" rx="2" fill="#eda100"/><text x="205.69" y="65" fill="#52514e" font-size="11">Hardware</text><text x="14" y="390" font-size="10.5" fill="#898781">simulated data</text></svg>