<?xml version="1.0" encoding="UTF-8"?>
<svg xmlns="http://www.w3.org/2000/svg" viewBox="0 0 680 400" width="680" height="400" role="img" font-family='system-ui, -apple-system, "Segoe UI", Helvetica, Arial, sans-serif'><rect x="0" y="0" width="680" height="400" fill="#1a1a19"/><title>Language share of new services, 2026</title><line x1="69.5" x2="69.5" y1="59" y2="350.5" stroke="#383835" stroke-width="1"/><line x1="151.5" x2="151.5" y1="59" y2="350.5" stroke="#2c2c2a" stroke-width="1"/><line x1="234.5" x2="234.5" y1="59" y2="350.5" stroke="#2c2c2a" stroke-width="1"/><line x1="316.5" x2="316.5" y1="59" y2="350.5" stroke="#2c2c2a" stroke-width="1"/><line x1="398.5" x2="398.5" y1="59" y2="350.5" stroke="#2c2c2a" stroke-width="1"/><line x1="480.5" x2="480.5" y1="59" y2="350.5" stroke="#2c2c2a" stroke-width="1"/><line x1="563.5" x2="563.5" y1="59" y2="350.5" stroke="#2c2c2a" stroke-width="1"/><line x1="645.5" x2="645.5" y1="59" y2="350.5" stroke="#2c2c2a" stroke-width="1"/><line x1="69.5" x2="69.5" y1="59" y2="350.5" stroke="#383835" stroke-width="1"/><defs><clipPath id="limnclip6"><rect x="-40.28" y="33" width="795.7" height="343.5"/></clipPath></defs><g clip-path="url(#limnclip6)"><path d="M69.72 67.82 h505.91 q4 0 4 4 v16 q0 4 -4 4 h-505.91 Z" fill="#3987e5"/><path d="M69.72 109.46 h357.87 q4 0 4 4 v16 q0 4 -4 4 h-357.87 Z" fill="#3987e5"/><path d="M69.72 192.75 h150.62 q4 0 4 4 v16 q0 4 -4 4 h-150.62 Z" fill="#3987e5"/><path d="M69.72 151.11 h193.38 q4 0 4 4 v16 q0 4 -4 4 h-193.38 Z" fill="#3987e5"/><path d="M69.72 234.39 h96.34 q4 0 4 4 v16 q0 4 -4 4 h-96.34 Z" fill="#3987e5"/><path d="M69.72 276.04 h81.53 q4 0 4 4 v16 q0 4 -4 4 h-81.53 Z" fill="#3987e5"/><path d="M69.72 317.68 h58.5 q4 0 4 4 v16 q0 4 -4 4 h-58.5 Z" fill="#3987e5"/><text x="584.63" y="79.82" dy="0.35em" font-size="11" fill="#c3c2b7" text-anchor="start">31%</text><text x="436.59" y="121.46" dy="0.35em" font-size="11" fill="#c3c2b7" text-anchor="start">22%</text><text x="229.34" y="204.75" dy="0.35em" font-size="11" fill="#c3c2b7" text-anchor="start">9.4%</text><text x="272.11" y="163.11" dy="0.35em" font-size="11" fill="#c3c2b7" text-anchor="start">12%</text><text x="175.06" y="246.39" dy="0.35em" font-size="11" fill="#c3c2b7" text-anchor="start">6.1%</text><text x="160.26" y="288.04" dy="0.35em" font-size="11" fill="#c3c2b7" text-anchor="start">5.2%</text><text x="137.23" y="329.68" dy="0.35em" font-size="11" fill="#c3c2b7" text-anchor="start">3.8%</text></g><text x="61.72" y="79.82" dy="0.35em" text-anchor="end" font-size="11" fill="#9c9a93">Python</text><text x="61.72" y="121.46" dy="0.35em" text-anchor="end" font-size="11" fill="#9c9a93">TypeScript</text><text x="61.72" y="163.11" dy="0.35em" text-anchor="end" font-size="11" fill="#9c9a93">Go</text><text x="61.72" y="204.75" dy="0.35em" text-anchor="end" font-size="11" fill="#9c9a93">Rust</text><text x="61.72" y="246.39" dy="0.35em" text-anchor="end" font-size="11" fill="#9c9a93">Kotlin</text><text x="61.72" y="288.04" dy="0.35em" text-anchor="end" font-size="11" fill="#9c9a93">Swift</text><text x="61.72" y="329.68" dy="0.35em" text-anchor="end" font-size="11" fill="#9c9a93">Ruby</text><text x="69.72" y="367.5" text-anchor="middle" style="font-variant-numeric: tabular-nums" font-size="11" fill="#9c9a93">0%</text><text x="151.97" y="367.5" text-anchor="middle" style="font-variant-numeric: tabular-nums" font-size="11" fill="#9c9a93">5%</text><text x="234.21" y="367.5" text-anchor="middle" style="font-variant-numeric: tabular-nums" font-size="11" fill="#9c9a93">10%</text><text x="316.45" y="367.5" text-anchor="middle" style="font-variant-numeric: tabular-nums" font-size="11" fill="#9c9a93">15%</text><text x="398.7" y="367.5" text-anchor="middle" style="font-variant-numeric: tabular-nums" font-size="11" fill="#9c9a93">20%</text><text x="480.94" y="367.5" text-anchor="middle" style="font-variant-numeric: tabular-nums" font-size="11" fill="#9c9a93">25%</text><text x="563.18" y="367.5" text-anchor="middle" style="font-variant-numeric: tabular-nums" font-size="11" fill="#9c9a93">30%</text><text x="645.43" y="367.5" text-anchor="middle" style="font-variant-numeric: tabular-nums" font-size="11" fill="#9c9a93">35%</text><text x="14" y="27" fill="#ffffff" font-size="15" font-weight="600">Language share of new services, 2026</text><text x="14" y="44" fill="#c3c2b7" font-size="12">percent strings parsed; unit kept on the axis</text><text x="14" y="390" font-size="10.5" fill="#9c9a93">simulated data</text></svg>