<?xml version="1.0" encoding="UTF-8"?>
<svg xmlns="http://www.w3.org/2000/svg" viewBox="0 0 680 400" width="680" height="400" role="img" font-family='system-ui, -apple-system, "Segoe UI", Helvetica, Arial, sans-serif'><rect x="0" y="0" width="680" height="400" fill="#fcfcfb"/><title>Response time spread by endpoint, ms</title><line x1="33.45" x2="662.65" y1="350.5" y2="350.5" stroke="#c3c2b7" stroke-width="1"/><line x1="33.45" x2="662.65" y1="292.5" y2="292.5" stroke="#e1e0d9" stroke-width="1"/><line x1="33.45" x2="662.65" y1="233.5" y2="233.5" stroke="#e1e0d9" stroke-width="1"/><line x1="33.45" x2="662.65" y1="175.5" y2="175.5" stroke="#e1e0d9" stroke-width="1"/><line x1="33.45" x2="662.65" y1="117.5" y2="117.5" stroke="#e1e0d9" stroke-width="1"/><line x1="33.45" x2="662.65" y1="59.5" y2="59.5" stroke="#e1e0d9" stroke-width="1"/><line x1="33.45" x2="662.65" y1="350.5" y2="350.5" stroke="#c3c2b7" stroke-width="1"/><defs><clipPath id="limnclip27"><rect x="27.45" y="53" width="636.21" height="303.5"/></clipPath></defs><g clip-path="url(#limnclip27)"><rect x="93.1" y="258.1" width="38" height="22.34" rx="2" fill="#2a78d6" fill-opacity="0.18" stroke="#2a78d6" stroke-width="1.5"/><line x1="93.1" x2="131.1" y1="266.78" y2="266.78" stroke="#2a78d6" stroke-width="2.5"/><line x1="112.1" x2="112.1" y1="258.1" y2="238.84" stroke="#2a78d6" stroke-width="1.5"/><line x1="107.1" x2="117.1" y1="238.84" y2="238.84" stroke="#2a78d6" stroke-width="1.5"/><line x1="112.1" x2="112.1" y1="280.45" y2="312.92" stroke="#2a78d6" stroke-width="1.5"/><line x1="107.1" x2="117.1" y1="312.92" y2="312.92" stroke="#2a78d6" stroke-width="1.5"/><rect x="250.4" y="289.23" width="38" height="12.97" rx="2" fill="#2a78d6" fill-opacity="0.18" stroke="#2a78d6" stroke-width="1.5"/><line x1="250.4" x2="288.4" y1="296.1" y2="296.1" stroke="#2a78d6" stroke-width="2.5"/><line x1="269.4" x2="269.4" y1="289.23" y2="272.53" stroke="#2a78d6" stroke-width="1.5"/><line x1="264.4" x2="274.4" y1="272.53" y2="272.53" stroke="#2a78d6" stroke-width="1.5"/><line x1="269.4" x2="269.4" y1="302.2" y2="318.72" stroke="#2a78d6" stroke-width="1.5"/><line x1="264.4" x2="274.4" y1="318.72" y2="318.72" stroke="#2a78d6" stroke-width="1.5"/><circle cx="269.4" cy="326.66" r="2.5" fill="#2a78d6" fill-opacity="0.6"/><circle cx="269.4" cy="326.18" r="2.5" fill="#2a78d6" fill-opacity="0.6"/><circle cx="269.4" cy="324.94" r="2.5" fill="#2a78d6" fill-opacity="0.6"/><circle cx="269.4" cy="322.13" r="2.5" fill="#2a78d6" fill-opacity="0.6"/><circle cx="269.4" cy="269.22" r="2.5" fill="#2a78d6" fill-opacity="0.6"/><rect x="407.7" y="311.25" width="38" height="8.41" rx="2" fill="#2a78d6" fill-opacity="0.18" stroke="#2a78d6" stroke-width="1.5"/><line x1="407.7" x2="445.7" y1="315.14" y2="315.14" stroke="#2a78d6" stroke-width="2.5"/><line x1="426.7" x2="426.7" y1="311.25" y2="301.53" stroke="#2a78d6" stroke-width="1.5"/><line x1="421.7" x2="431.7" y1="301.53" y2="301.53" stroke="#2a78d6" stroke-width="1.5"/><line x1="426.7" x2="426.7" y1="319.66" y2="329.13" stroke="#2a78d6" stroke-width="1.5"/><line x1="421.7" x2="431.7" y1="329.13" y2="329.13" stroke="#2a78d6" stroke-width="1.5"/><rect x="565" y="204.46" width="38" height="59.41" rx="2" fill="#2a78d6" fill-opacity="0.18" stroke="#2a78d6" stroke-width="1.5"/><line x1="565" x2="603" y1="233.18" y2="233.18" stroke="#2a78d6" stroke-width="2.5"/><line x1="584" x2="584" y1="204.46" y2="148.65" stroke="#2a78d6" stroke-width="1.5"/><line x1="579" x2="589" y1="148.65" y2="148.65" stroke="#2a78d6" stroke-width="1.5"/><line x1="584" x2="584" y1="263.87" y2="347.58" stroke="#2a78d6" stroke-width="1.5"/><line x1="579" x2="589" y1="347.58" y2="347.58" stroke="#2a78d6" stroke-width="1.5"/><circle cx="584" cy="115.14" r="2.5" fill="#2a78d6" fill-opacity="0.6"/><circle cx="584" cy="112.86" r="2.5" fill="#2a78d6" fill-opacity="0.6"/></g><text x="25.45" y="350.5" dy="0.35em" text-anchor="end" style="font-variant-numeric: tabular-nums" font-size="11" fill="#898781">0</text><text x="25.45" y="292.2" dy="0.35em" text-anchor="end" style="font-variant-numeric: tabular-nums" font-size="11" fill="#898781">100</text><text x="25.45" y="233.9" dy="0.35em" text-anchor="end" style="font-variant-numeric: tabular-nums" font-size="11" fill="#898781">200</text><text x="25.45" y="175.6" dy="0.35em" text-anchor="end" style="font-variant-numeric: tabular-nums" font-size="11" fill="#898781">300</text><text x="25.45" y="117.3" dy="0.35em" text-anchor="end" style="font-variant-numeric: tabular-nums" font-size="11" fill="#898781">400</text><text x="25.45" y="59" dy="0.35em" text-anchor="end" style="font-variant-numeric: tabular-nums" font-size="11" fill="#898781">500</text><text x="112.1" y="367.5" text-anchor="middle" font-size="11" fill="#898781">checkout</text><text x="269.4" y="367.5" text-anchor="middle" font-size="11" fill="#898781">search</text><text x="426.7" y="367.5" text-anchor="middle" font-size="11" fill="#898781">profile</text><text x="584" y="367.5" text-anchor="middle" font-size="11" fill="#898781">feed</text><text x="14" y="27" fill="#0b0b0b" font-size="15" font-weight="600">Response time spread by endpoint, ms</text><text x="14" y="45" fill="#52514e" font-size="12">quartile boxes, Tukey whiskers, outliers as dots</text><text x="14" y="390" font-size="10.5" fill="#898781">simulated data</text></svg>