<?xml version="1.0" encoding="UTF-8"?>
<svg xmlns="http://www.w3.org/2000/svg" viewBox="0 0 680 400" width="680" height="400" role="img" font-family='system-ui, -apple-system, "Segoe UI", Helvetica, Arial, sans-serif'><rect x="0" y="0" width="680" height="400" fill="#1a1a19"/><title>A German CSV, unedited</title><line x1="26.97" x2="656.82" y1="350.5" y2="350.5" stroke="#2c2c2a" stroke-width="1"/><line x1="26.97" x2="656.82" y1="253.5" y2="253.5" stroke="#2c2c2a" stroke-width="1"/><line x1="26.97" x2="656.82" y1="156.5" y2="156.5" stroke="#2c2c2a" stroke-width="1"/><line x1="26.97" x2="656.82" y1="59.5" y2="59.5" stroke="#2c2c2a" stroke-width="1"/><line x1="26.97" x2="656.82" y1="350.5" y2="350.5" stroke="#383835" stroke-width="1"/><defs><clipPath id="limnclip30"><rect x="20.97" y="53" width="641.86" height="303.5"/></clipPath></defs><g clip-path="url(#limnclip30)"><path d="M26.97 303.86 L96.95 270.82 L166.93 288.31 L236.92 222.24 L306.9 195.03 L376.89 208.64 L446.87 140.62 L516.86 113.41 L586.84 119.24 L656.82 70.66" fill="none" stroke="#3987e5" stroke-width="2" stroke-linejoin="round" stroke-linecap="round"/><circle cx="26.97" cy="303.86" r="3.5" fill="#3987e5" stroke="#1a1a19" stroke-width="2"/><circle cx="96.95" cy="270.82" r="3.5" fill="#3987e5" stroke="#1a1a19" stroke-width="2"/><circle cx="166.93" cy="288.31" r="3.5" fill="#3987e5" stroke="#1a1a19" stroke-width="2"/><circle cx="236.92" cy="222.24" r="3.5" fill="#3987e5" stroke="#1a1a19" stroke-width="2"/><circle cx="306.9" cy="195.03" r="3.5" fill="#3987e5" stroke="#1a1a19" stroke-width="2"/><circle cx="376.89" cy="208.64" r="3.5" fill="#3987e5" stroke="#1a1a19" stroke-width="2"/><circle cx="446.87" cy="140.62" r="3.5" fill="#3987e5" stroke="#1a1a19" stroke-width="2"/><circle cx="516.86" cy="113.41" r="3.5" fill="#3987e5" stroke="#1a1a19" stroke-width="2"/><circle cx="586.84" cy="119.24" r="3.5" fill="#3987e5" stroke="#1a1a19" stroke-width="2"/><circle cx="656.82" cy="70.66" r="3.5" fill="#3987e5" stroke="#1a1a19" stroke-width="2"/></g><text x="18.97" y="350.5" dy="0.35em" text-anchor="end" style="font-variant-numeric: tabular-nums" font-size="11" fill="#9c9a93">5</text><text x="18.97" y="253.33" dy="0.35em" text-anchor="end" style="font-variant-numeric: tabular-nums" font-size="11" fill="#9c9a93">10</text><text x="18.97" y="156.17" dy="0.35em" text-anchor="end" style="font-variant-numeric: tabular-nums" font-size="11" fill="#9c9a93">15</text><text x="18.97" y="59" dy="0.35em" text-anchor="end" style="font-variant-numeric: tabular-nums" font-size="11" fill="#9c9a93">20</text><text x="36.96" y="367.5" text-anchor="middle" font-size="11" fill="#9c9a93">2 Mar 2026</text><text x="176.93" y="367.5" text-anchor="middle" font-size="11" fill="#9c9a93">16 Mar</text><text x="316.9" y="367.5" text-anchor="middle" font-size="11" fill="#9c9a93">30 Mar</text><text x="456.87" y="367.5" text-anchor="middle" font-size="11" fill="#9c9a93">13 Apr</text><text x="596.84" y="367.5" text-anchor="middle" font-size="11" fill="#9c9a93">27 Apr</text><text x="14" y="27" fill="#ffffff" font-size="15" font-weight="600">A German CSV, unedited</text><text x="14" y="44" fill="#c3c2b7" font-size="12">semicolons · decimal commas · dotted day-first dates — detected</text><text x="14" y="390" font-size="10.5" fill="#9c9a93">source: weather export, ingested as-is</text></svg>