<?xml version="1.0" encoding="UTF-8"?>
<svg xmlns="http://www.w3.org/2000/svg" viewBox="0 0 680 400" width="680" height="400" role="img" font-family='system-ui, -apple-system, "Segoe UI", Helvetica, Arial, sans-serif'><rect x="0" y="0" width="680" height="400" fill="#fcfcfb"/><title>A German CSV, unedited</title><line x1="26.97" x2="656.82" y1="350.5" y2="350.5" stroke="#e1e0d9" stroke-width="1"/><line x1="26.97" x2="656.82" y1="253.5" y2="253.5" stroke="#e1e0d9" stroke-width="1"/><line x1="26.97" x2="656.82" y1="156.5" y2="156.5" stroke="#e1e0d9" stroke-width="1"/><line x1="26.97" x2="656.82" y1="59.5" y2="59.5" stroke="#e1e0d9" stroke-width="1"/><line x1="26.97" x2="656.82" y1="350.5" y2="350.5" stroke="#c3c2b7" stroke-width="1"/><defs><clipPath id="limnclip29"><rect x="20.97" y="53" width="636.86" height="303.5"/></clipPath></defs><g clip-path="url(#limnclip29)"><path d="M26.97 303.86 L96.95 270.82 L166.93 288.31 L236.92 222.24 L306.9 195.03 L376.89 208.64 L446.87 140.62 L516.86 113.41 L586.84 119.24 L656.82 70.66" fill="none" stroke="#2a78d6" stroke-width="2" stroke-linejoin="round" stroke-linecap="round"/><circle cx="26.97" cy="303.86" r="3.5" fill="#2a78d6" stroke="#fcfcfb" stroke-width="2"/><circle cx="96.95" cy="270.82" r="3.5" fill="#2a78d6" stroke="#fcfcfb" stroke-width="2"/><circle cx="166.93" cy="288.31" r="3.5" fill="#2a78d6" stroke="#fcfcfb" stroke-width="2"/><circle cx="236.92" cy="222.24" r="3.5" fill="#2a78d6" stroke="#fcfcfb" stroke-width="2"/><circle cx="306.9" cy="195.03" r="3.5" fill="#2a78d6" stroke="#fcfcfb" stroke-width="2"/><circle cx="376.89" cy="208.64" r="3.5" fill="#2a78d6" stroke="#fcfcfb" stroke-width="2"/><circle cx="446.87" cy="140.62" r="3.5" fill="#2a78d6" stroke="#fcfcfb" stroke-width="2"/><circle cx="516.86" cy="113.41" r="3.5" fill="#2a78d6" stroke="#fcfcfb" stroke-width="2"/><circle cx="586.84" cy="119.24" r="3.5" fill="#2a78d6" stroke="#fcfcfb" stroke-width="2"/><circle cx="656.82" cy="70.66" r="3.5" fill="#2a78d6" stroke="#fcfcfb" stroke-width="2"/></g><text x="18.97" y="350.5" dy="0.35em" text-anchor="end" style="font-variant-numeric: tabular-nums" font-size="11" fill="#898781">5</text><text x="18.97" y="253.33" dy="0.35em" text-anchor="end" style="font-variant-numeric: tabular-nums" font-size="11" fill="#898781">10</text><text x="18.97" y="156.17" dy="0.35em" text-anchor="end" style="font-variant-numeric: tabular-nums" font-size="11" fill="#898781">15</text><text x="18.97" y="59" dy="0.35em" text-anchor="end" style="font-variant-numeric: tabular-nums" font-size="11" fill="#898781">20</text><text x="36.96" y="367.5" text-anchor="middle" font-size="11" fill="#898781">2 Mar 2026</text><text x="176.93" y="367.5" text-anchor="middle" font-size="11" fill="#898781">16 Mar</text><text x="316.9" y="367.5" text-anchor="middle" font-size="11" fill="#898781">30 Mar</text><text x="456.87" y="367.5" text-anchor="middle" font-size="11" fill="#898781">13 Apr</text><text x="596.84" y="367.5" text-anchor="middle" font-size="11" fill="#898781">27 Apr</text><text x="14" y="27" fill="#0b0b0b" font-size="15" font-weight="600">A German CSV, unedited</text><text x="14" y="45" fill="#52514e" font-size="12">semicolons · decimal commas · dotted day-first dates — detected</text><text x="14" y="390" font-size="10.5" fill="#898781">source: weather export, ingested as-is</text></svg>