<?xml version="1.0" encoding="UTF-8"?>
<svg xmlns="http://www.w3.org/2000/svg" viewBox="0 0 680 400" width="680" height="400" role="img" font-family='system-ui, -apple-system, "Segoe UI", Helvetica, Arial, sans-serif'><rect x="0" y="0" width="680" height="400" fill="#1a1a19"/><title>Signups by city — one honest y axis</title><text x="14" y="27" fill="#ffffff" font-size="15" font-weight="600">Signups by city — one honest y axis</text><text x="14" y="45" fill="#c3c2b7" font-size="12">small multiples share scales; a private axis per panel would lie</text><svg xmlns="http://www.w3.org/2000/svg" viewBox="0 0 324 154.25" width="324" height="154.25" role="img" font-family='system-ui, -apple-system, "Segoe UI", Helvetica, Arial, sans-serif' x="10" y="55"><rect x="0" y="0" width="324" height="154.25" fill="#1a1a19"/><title>Berlin</title><line x1="33.45" x2="294.02" y1="125.5" y2="125.5" stroke="#383835" stroke-width="1"/><line x1="33.45" x2="294.02" y1="83.5" y2="83.5" stroke="#2c2c2a" stroke-width="1"/><line x1="33.45" x2="294.02" y1="41.5" y2="41.5" stroke="#2c2c2a" stroke-width="1"/><line x1="33.45" x2="294.02" y1="125.5" y2="125.5" stroke="#383835" stroke-width="1"/><defs><clipPath id="limnclip23"><rect x="27.45" y="35" width="267.57" height="96.25"/></clipPath></defs><g clip-path="url(#limnclip23)"><path d="M33.45 79.25 L51.12 79.81 L68.23 80.35 L85.9 80.44 L103.01 79.75 L120.68 78.13 L138.36 75.66 L155.46 72.66 L173.14 69.53 L190.24 66.74 L207.92 64.66 L225.6 63.5 L241.56 63.21 L259.24 63.58 L276.34 64.19 L294.02 64.59" fill="none" stroke="#3987e5" stroke-width="2" stroke-linejoin="round" stroke-linecap="round"/></g><text x="25.45" y="125.25" dy="0.35em" text-anchor="end" style="font-variant-numeric: tabular-nums" font-size="11" fill="#898781">0</text><text x="25.45" y="83.12" dy="0.35em" text-anchor="end" style="font-variant-numeric: tabular-nums" font-size="11" fill="#898781">200</text><text x="25.45" y="41" dy="0.35em" text-anchor="end" style="font-variant-numeric: tabular-nums" font-size="11" fill="#898781">400</text><text x="103.01" y="142.25" text-anchor="middle" font-size="11" fill="#898781">Jul 2024</text><text x="207.92" y="142.25" text-anchor="middle" font-size="11" fill="#898781">Jan 2025</text><text x="14" y="24.5" fill="#ffffff" font-size="12.5" font-weight="600">Berlin</text></svg><svg xmlns="http://www.w3.org/2000/svg" viewBox="0 0 324 154.25" width="324" height="154.25" role="img" font-family='system-ui, -apple-system, "Segoe UI", Helvetica, Arial, sans-serif' x="346" y="55"><rect x="0" y="0" width="324" height="154.25" fill="#1a1a19"/><title>Madrid</title><line x1="33.45" x2="294.02" y1="125.5" y2="125.5" stroke="#383835" stroke-width="1"/><line x1="33.45" x2="294.02" y1="83.5" y2="83.5" stroke="#2c2c2a" stroke-width="1"/><line x1="33.45" x2="294.02" y1="41.5" y2="41.5" stroke="#2c2c2a" stroke-width="1"/><line x1="33.45" x2="294.02" y1="125.5" y2="125.5" stroke="#383835" stroke-width="1"/><defs><clipPath id="limnclip24"><rect x="27.45" y="35" width="267.57" height="96.25"/></clipPath></defs><g clip-path="url(#limnclip24)"><path d="M33.45 96.37 L51.12 92.87 L68.23 89.1 L85.9 85.52 L103.01 82.54 L120.68 80.42 L138.36 79.23 L155.46 78.78 L173.14 78.73 L190.24 78.62 L207.92 78.01 L225.6 76.6 L241.56 74.25 L259.24 71.09 L276.34 67.42 L294.02 63.67" fill="none" stroke="#3987e5" stroke-width="2" stroke-linejoin="round" stroke-linecap="round"/></g><text x="25.45" y="125.25" dy="0.35em" text-anchor="end" style="font-variant-numeric: tabular-nums" font-size="11" fill="#898781">0</text><text x="25.45" y="83.12" dy="0.35em" text-anchor="end" style="font-variant-numeric: tabular-nums" font-size="11" fill="#898781">200</text><text x="25.45" y="41" dy="0.35em" text-anchor="end" style="font-variant-numeric: tabular-nums" font-size="11" fill="#898781">400</text><text x="103.01" y="142.25" text-anchor="middle" font-size="11" fill="#898781">Jul 2024</text><text x="207.92" y="142.25" text-anchor="middle" font-size="11" fill="#898781">Jan 2025</text><text x="14" y="24.5" fill="#ffffff" font-size="12.5" font-weight="600">Madrid</text></svg><svg xmlns="http://www.w3.org/2000/svg" viewBox="0 0 324 154.25" width="324" height="154.25" role="img" font-family='system-ui, -apple-system, "Segoe UI", Helvetica, Arial, sans-serif' x="10" y="221.25"><rect x="0" y="0" width="324" height="154.25" fill="#1a1a19"/><title>Warsaw</title><line x1="33.45" x2="294.02" y1="125.5" y2="125.5" stroke="#383835" stroke-width="1"/><line x1="33.45" x2="294.02" y1="83.5" y2="83.5" stroke="#2c2c2a" stroke-width="1"/><line x1="33.45" x2="294.02" y1="41.5" y2="41.5" stroke="#2c2c2a" stroke-width="1"/><line x1="33.45" x2="294.02" y1="125.5" y2="125.5" stroke="#383835" stroke-width="1"/><defs><clipPath id="limnclip25"><rect x="27.45" y="35" width="267.57" height="96.25"/></clipPath></defs><g clip-path="url(#limnclip25)"><path d="M33.45 102.9 L51.12 101.61 L68.23 100.84 L85.9 100.17 L103.01 99.14 L120.68 97.39 L138.36 94.72 L155.46 91.18 L173.14 87 L190.24 82.6 L207.92 78.43 L225.6 74.89 L241.56 72.23 L259.24 70.49 L276.34 69.47 L294.02 68.8" fill="none" stroke="#3987e5" stroke-width="2" stroke-linejoin="round" stroke-linecap="round"/></g><text x="25.45" y="125.25" dy="0.35em" text-anchor="end" style="font-variant-numeric: tabular-nums" font-size="11" fill="#898781">0</text><text x="25.45" y="83.12" dy="0.35em" text-anchor="end" style="font-variant-numeric: tabular-nums" font-size="11" fill="#898781">200</text><text x="25.45" y="41" dy="0.35em" text-anchor="end" style="font-variant-numeric: tabular-nums" font-size="11" fill="#898781">400</text><text x="103.01" y="142.25" text-anchor="middle" font-size="11" fill="#898781">Jul 2024</text><text x="207.92" y="142.25" text-anchor="middle" font-size="11" fill="#898781">Jan 2025</text><text x="14" y="24.5" fill="#ffffff" font-size="12.5" font-weight="600">Warsaw</text></svg><svg xmlns="http://www.w3.org/2000/svg" viewBox="0 0 324 154.25" width="324" height="154.25" role="img" font-family='system-ui, -apple-system, "Segoe UI", Helvetica, Arial, sans-serif' x="346" y="221.25"><rect x="0" y="0" width="324" height="154.25" fill="#1a1a19"/><title>Lisbon</title><line x1="33.45" x2="294.02" y1="125.5" y2="125.5" stroke="#383835" stroke-width="1"/><line x1="33.45" x2="294.02" y1="83.5" y2="83.5" stroke="#2c2c2a" stroke-width="1"/><line x1="33.45" x2="294.02" y1="41.5" y2="41.5" stroke="#2c2c2a" stroke-width="1"/><line x1="33.45" x2="294.02" y1="125.5" y2="125.5" stroke="#383835" stroke-width="1"/><defs><clipPath id="limnclip26"><rect x="27.45" y="35" width="267.57" height="96.25"/></clipPath></defs><g clip-path="url(#limnclip26)"><path d="M33.45 113.77 L51.12 114.52 L68.23 114.59 L85.9 113.77 L103.01 112.04 L120.68 109.64 L138.36 106.92 L155.46 104.37 L173.14 102.38 L190.24 101.26 L207.92 101.05 L225.6 101.62 L241.56 102.6 L259.24 103.57 L276.34 104.06 L294.02 103.76" fill="none" stroke="#3987e5" stroke-width="2" stroke-linejoin="round" stroke-linecap="round"/></g><text x="25.45" y="125.25" dy="0.35em" text-anchor="end" style="font-variant-numeric: tabular-nums" font-size="11" fill="#898781">0</text><text x="25.45" y="83.12" dy="0.35em" text-anchor="end" style="font-variant-numeric: tabular-nums" font-size="11" fill="#898781">200</text><text x="25.45" y="41" dy="0.35em" text-anchor="end" style="font-variant-numeric: tabular-nums" font-size="11" fill="#898781">400</text><text x="103.01" y="142.25" text-anchor="middle" font-size="11" fill="#898781">Jul 2024</text><text x="207.92" y="142.25" text-anchor="middle" font-size="11" fill="#898781">Jan 2025</text><text x="14" y="24.5" fill="#ffffff" font-size="12.5" font-weight="600">Lisbon</text></svg><text x="14" y="390" font-size="10.5" fill="#898781">simulated data</text></svg>