<?xml version="1.0" encoding="UTF-8"?>
<svg xmlns="http://www.w3.org/2000/svg" viewBox="0 0 680 400" width="680" height="400" role="img" font-family='system-ui, -apple-system, "Segoe UI", Helvetica, Arial, sans-serif'><rect x="0" y="0" width="680" height="400" fill="#fcfcfb"/><title>Merged pull requests by team and weekday</title><rect x="58.41" y="42" width="118.52" height="59.9" rx="2" fill="#2367bb"/><text x="117.67" y="71.95" dy="0.35em" text-anchor="middle" font-size="11" fill="#ffffff">34</text><rect x="178.93" y="42" width="118.52" height="59.9" rx="2" fill="#154a8d"/><text x="238.19" y="71.95" dy="0.35em" text-anchor="middle" font-size="11" fill="#ffffff">41</text><rect x="299.45" y="42" width="118.52" height="59.9" rx="2" fill="#0d366b"/><text x="358.71" y="71.95" dy="0.35em" text-anchor="middle" font-size="11" fill="#ffffff">46</text><rect x="419.96" y="42" width="118.52" height="59.9" rx="2" fill="#19529a"/><text x="479.22" y="71.95" dy="0.35em" text-anchor="middle" font-size="11" fill="#ffffff">39</text><rect x="540.48" y="42" width="118.52" height="59.9" rx="2" fill="#3482e0"/><text x="599.74" y="71.95" dy="0.35em" text-anchor="middle" font-size="11" fill="#ffffff">28</text><rect x="58.41" y="103.9" width="118.52" height="59.9" rx="2" fill="#82b4ef"/><text x="117.67" y="133.85" dy="0.35em" text-anchor="middle" font-size="11" fill="#ffffff">18</text><rect x="178.93" y="103.9" width="118.52" height="59.9" rx="2" fill="#63a1ea"/><text x="238.19" y="133.85" dy="0.35em" text-anchor="middle" font-size="11" fill="#ffffff">22</text><rect x="299.45" y="103.9" width="118.52" height="59.9" rx="2" fill="#4b92e6"/><text x="358.71" y="133.85" dy="0.35em" text-anchor="middle" font-size="11" fill="#ffffff">25</text><rect x="419.96" y="103.9" width="118.52" height="59.9" rx="2" fill="#2b79d7"/><text x="479.22" y="133.85" dy="0.35em" text-anchor="middle" font-size="11" fill="#ffffff">30</text><rect x="540.48" y="103.9" width="118.52" height="59.9" rx="2" fill="#6aa5eb"/><text x="599.74" y="133.85" dy="0.35em" text-anchor="middle" font-size="11" fill="#ffffff">21</text><rect x="58.41" y="165.8" width="118.52" height="59.9" rx="2" fill="#63a1ea"/><text x="117.67" y="195.75" dy="0.35em" text-anchor="middle" font-size="11" fill="#ffffff">22</text><rect x="178.93" y="165.8" width="118.52" height="59.9" rx="2" fill="#2974d0"/><text x="238.19" y="195.75" dy="0.35em" text-anchor="middle" font-size="11" fill="#ffffff">31</text><rect x="299.45" y="165.8" width="118.52" height="59.9" rx="2" fill="#307edc"/><text x="358.71" y="195.75" dy="0.35em" text-anchor="middle" font-size="11" fill="#ffffff">29</text><rect x="419.96" y="165.8" width="118.52" height="59.9" rx="2" fill="#5497e7"/><text x="479.22" y="195.75" dy="0.35em" text-anchor="middle" font-size="11" fill="#ffffff">24</text><rect x="540.48" y="165.8" width="118.52" height="59.9" rx="2" fill="#82b4ef"/><text x="599.74" y="195.75" dy="0.35em" text-anchor="middle" font-size="11" fill="#ffffff">18</text><rect x="58.41" y="227.7" width="118.52" height="59.9" rx="2" fill="#c6ddf9"/><text x="117.67" y="257.65" dy="0.35em" text-anchor="middle" font-size="11" fill="#0b0b0b">9</text><rect x="178.93" y="227.7" width="118.52" height="59.9" rx="2" fill="#a1c6f4"/><text x="238.19" y="257.65" dy="0.35em" text-anchor="middle" font-size="11" fill="#0b0b0b">14</text><rect x="299.45" y="227.7" width="118.52" height="59.9" rx="2" fill="#b8d4f6"/><text x="358.71" y="257.65" dy="0.35em" text-anchor="middle" font-size="11" fill="#0b0b0b">11</text><rect x="419.96" y="227.7" width="118.52" height="59.9" rx="2" fill="#91bdf1"/><text x="479.22" y="257.65" dy="0.35em" text-anchor="middle" font-size="11" fill="#0b0b0b">16</text><rect x="540.48" y="227.7" width="118.52" height="59.9" rx="2" fill="#cde2fb"/><text x="599.74" y="257.65" dy="0.35em" text-anchor="middle" font-size="11" fill="#0b0b0b">8</text><rect x="58.41" y="289.6" width="118.52" height="59.9" rx="2" fill="#3987e5"/><text x="117.67" y="319.55" dy="0.35em" text-anchor="middle" font-size="11" fill="#ffffff">27</text><rect x="178.93" y="289.6" width="118.52" height="59.9" rx="2" fill="#266bc1"/><text x="238.19" y="319.55" dy="0.35em" text-anchor="middle" font-size="11" fill="#ffffff">33</text><rect x="299.45" y="289.6" width="118.52" height="59.9" rx="2" fill="#1a56a1"/><text x="358.71" y="319.55" dy="0.35em" text-anchor="middle" font-size="11" fill="#ffffff">38</text><rect x="419.96" y="289.6" width="118.52" height="59.9" rx="2" fill="#2b79d7"/><text x="479.22" y="319.55" dy="0.35em" text-anchor="middle" font-size="11" fill="#ffffff">30</text><rect x="540.48" y="289.6" width="118.52" height="59.9" rx="2" fill="#63a1ea"/><text x="599.74" y="319.55" dy="0.35em" text-anchor="middle" font-size="11" fill="#ffffff">22</text><text x="49.41" y="71.95" dy="0.35em" text-anchor="end" font-size="11" fill="#75736d">Platform</text><text x="49.41" y="133.85" dy="0.35em" text-anchor="end" font-size="11" fill="#75736d">Mobile</text><text x="49.41" y="195.75" dy="0.35em" text-anchor="end" font-size="11" fill="#75736d">Data</text><text x="49.41" y="257.65" dy="0.35em" text-anchor="end" font-size="11" fill="#75736d">Infra</text><text x="49.41" y="319.55" dy="0.35em" text-anchor="end" font-size="11" fill="#75736d">Web</text><text x="117.67" y="367.5" text-anchor="middle" font-size="11" fill="#75736d">Mon</text><text x="238.19" y="367.5" text-anchor="middle" font-size="11" fill="#75736d">Tue</text><text x="358.71" y="367.5" text-anchor="middle" font-size="11" fill="#75736d">Wed</text><text x="479.22" y="367.5" text-anchor="middle" font-size="11" fill="#75736d">Thu</text><text x="599.74" y="367.5" text-anchor="middle" font-size="11" fill="#75736d">Fri</text><text x="14" y="27" fill="#0b0b0b" font-size="15" font-weight="600">Merged pull requests by team and weekday</text><defs><linearGradient id="limnramp15" x1="0" y1="0" x2="1" y2="0"><stop offset="0.000" stop-color="#cde2fb"/><stop offset="0.083" stop-color="#b7d3f6"/><stop offset="0.167" stop-color="#9ec5f4"/><stop offset="0.250" stop-color="#86b6ef"/><stop offset="0.333" stop-color="#6da7ec"/><stop offset="0.417" stop-color="#5598e7"/><stop offset="0.500" stop-color="#3987e5"/><stop offset="0.583" stop-color="#2a78d6"/><stop offset="0.667" stop-color="#256abf"/><stop offset="0.750" stop-color="#1c5cab"/><stop offset="0.833" stop-color="#184f95"/><stop offset="0.917" stop-color="#104281"/><stop offset="1.000" stop-color="#0d366b"/></linearGradient></defs><rect x="550.62" y="19" width="96" height="8" rx="2" fill="url(#limnramp15)"/><text x="545.62" y="26" text-anchor="end" font-size="10.5" fill="#75736d">8</text><text x="651.62" y="26" font-size="10.5" fill="#75736d">46</text><text x="14" y="390" font-size="10.5" fill="#75736d">simulated data</text></svg>