<?xml version="1.0" encoding="UTF-8"?>
<svg xmlns="http://www.w3.org/2000/svg" viewBox="0 0 680 400" width="680" height="400" role="img" font-family='system-ui, -apple-system, "Segoe UI", Helvetica, Arial, sans-serif'><rect x="0" y="0" width="680" height="400" fill="#1a1a19"/><title>API latency distribution, ms</title><line x1="33.45" x2="664" y1="350.5" y2="350.5" stroke="#383835" stroke-width="1"/><line x1="33.45" x2="664" y1="292.5" y2="292.5" stroke="#2c2c2a" stroke-width="1"/><line x1="33.45" x2="664" y1="233.5" y2="233.5" stroke="#2c2c2a" stroke-width="1"/><line x1="33.45" x2="664" y1="175.5" y2="175.5" stroke="#2c2c2a" stroke-width="1"/><line x1="33.45" x2="664" y1="117.5" y2="117.5" stroke="#2c2c2a" stroke-width="1"/><line x1="33.45" x2="664" y1="59.5" y2="59.5" stroke="#2c2c2a" stroke-width="1"/><line x1="33.45" x2="664" y1="350.5" y2="350.5" stroke="#383835" stroke-width="1"/><defs><clipPath id="limnclip14"><rect x="27.45" y="53" width="637.55" height="303.5"/></clipPath></defs><g clip-path="url(#limnclip14)"><path d="M96.79 350.5 v-5.33 q0 -4 4 -4 h2.74 q4 0 4 4 v5.33 Z" fill="#3987e5"/><path d="M109.53 350.5 v-35.64 q0 -4 4 -4 h2.74 q4 0 4 4 v35.64 Z" fill="#3987e5"/><path d="M122.27 350.5 v-46.14 q0 -4 4 -4 h2.74 q4 0 4 4 v46.14 Z" fill="#3987e5"/><path d="M135.01 350.5 v-95.11 q0 -4 4 -4 h2.74 q4 0 4 4 v95.11 Z" fill="#3987e5"/><path d="M147.75 350.5 v-141.75 q0 -4 4 -4 h2.74 q4 0 4 4 v141.75 Z" fill="#3987e5"/><path d="M160.49 350.5 v-180.23 q0 -4 4 -4 h2.74 q4 0 4 4 v180.23 Z" fill="#3987e5"/><path d="M173.23 350.5 v-205.88 q0 -4 4 -4 h2.74 q4 0 4 4 v205.88 Z" fill="#3987e5"/><path d="M185.96 350.5 v-232.7 q0 -4 4 -4 h2.74 q4 0 4 4 v232.7 Z" fill="#3987e5"/><path d="M198.7 350.5 v-236.2 q0 -4 4 -4 h2.74 q4 0 4 4 v236.2 Z" fill="#3987e5"/><path d="M211.44 350.5 v-264.18 q0 -4 4 -4 h2.74 q4 0 4 4 v264.18 Z" fill="#3987e5"/><path d="M224.18 350.5 v-215.21 q0 -4 4 -4 h2.74 q4 0 4 4 v215.21 Z" fill="#3987e5"/><path d="M236.92 350.5 v-180.23 q0 -4 4 -4 h2.74 q4 0 4 4 v180.23 Z" fill="#3987e5"/><path d="M249.66 350.5 v-161.57 q0 -4 4 -4 h2.74 q4 0 4 4 v161.57 Z" fill="#3987e5"/><path d="M262.4 350.5 v-146.41 q0 -4 4 -4 h2.74 q4 0 4 4 v146.41 Z" fill="#3987e5"/><path d="M275.14 350.5 v-124.26 q0 -4 4 -4 h2.74 q4 0 4 4 v124.26 Z" fill="#3987e5"/><path d="M287.88 350.5 v-99.77 q0 -4 4 -4 h2.74 q4 0 4 4 v99.77 Z" fill="#3987e5"/><path d="M300.62 350.5 v-77.62 q0 -4 4 -4 h2.74 q4 0 4 4 v77.62 Z" fill="#3987e5"/><path d="M313.36 350.5 v-72.96 q0 -4 4 -4 h2.74 q4 0 4 4 v72.96 Z" fill="#3987e5"/><path d="M326.1 350.5 v-56.63 q0 -4 4 -4 h2.74 q4 0 4 4 v56.63 Z" fill="#3987e5"/><path d="M338.83 350.5 v-42.64 q0 -4 4 -4 h2.74 q4 0 4 4 v42.64 Z" fill="#3987e5"/><path d="M351.57 350.5 v-40.31 q0 -4 4 -4 h2.74 q4 0 4 4 v40.31 Z" fill="#3987e5"/><path d="M364.31 350.5 v-28.65 q0 -4 4 -4 h2.74 q4 0 4 4 v28.65 Z" fill="#3987e5"/><path d="M377.05 350.5 v-21.65 q0 -4 4 -4 h2.74 q4 0 4 4 v21.65 Z" fill="#3987e5"/><path d="M389.79 350.5 v-15.82 q0 -4 4 -4 h2.74 q4 0 4 4 v15.82 Z" fill="#3987e5"/><path d="M402.53 350.5 v-9.99 q0 -4 4 -4 h2.74 q4 0 4 4 v9.99 Z" fill="#3987e5"/><path d="M415.27 350.5 v-8.83 q0 -4 4 -4 h2.74 q4 0 4 4 v8.83 Z" fill="#3987e5"/><path d="M428.01 350.5 v-5.33 q0 -4 4 -4 h2.74 q4 0 4 4 v5.33 Z" fill="#3987e5"/><path d="M440.75 350.5 v-8.83 q0 -4 4 -4 h2.74 q4 0 4 4 v8.83 Z" fill="#3987e5"/><path d="M453.49 350.5 v-4.16 q0 -4 4 -4 h2.74 q4 0 4 4 v4.16 Z" fill="#3987e5"/><path d="M466.23 350.5 v-2.91 q0 -2.91 2.91 -2.91 h4.91 q2.91 0 2.91 2.91 v2.91 Z" fill="#3987e5"/><path d="M478.96 350.5 v-1.75 q0 -1.75 1.75 -1.75 h7.24 q1.75 0 1.75 1.75 v1.75 Z" fill="#3987e5"/><path d="M504.44 350.5 v-1.75 q0 -1.75 1.75 -1.75 h7.24 q1.75 0 1.75 1.75 v1.75 Z" fill="#3987e5"/><path d="M517.18 350.5 v-2.33 q0 -2.33 2.33 -2.33 h6.08 q2.33 0 2.33 2.33 v2.33 Z" fill="#3987e5"/><path d="M529.92 350.5 v-0.58 q0 -0.58 0.58 -0.58 h9.57 q0.58 0 0.58 0.58 v0.58 Z" fill="#3987e5"/><path d="M542.66 350.5 v-2.33 q0 -2.33 2.33 -2.33 h6.08 q2.33 0 2.33 2.33 v2.33 Z" fill="#3987e5"/><path d="M555.4 350.5 v-1.75 q0 -1.75 1.75 -1.75 h7.24 q1.75 0 1.75 1.75 v1.75 Z" fill="#3987e5"/><path d="M568.14 350.5 v-0.58 q0 -0.58 0.58 -0.58 h9.57 q0.58 0 0.58 0.58 v0.58 Z" fill="#3987e5"/><path d="M580.88 350.5 v-1.17 q0 -1.17 1.17 -1.17 h8.41 q1.17 0 1.17 1.17 v1.17 Z" fill="#3987e5"/><path d="M606.36 350.5 v-1.17 q0 -1.17 1.17 -1.17 h8.41 q1.17 0 1.17 1.17 v1.17 Z" fill="#3987e5"/><path d="M631.83 350.5 v-1.17 q0 -1.17 1.17 -1.17 h8.41 q1.17 0 1.17 1.17 v1.17 Z" fill="#3987e5"/></g><text x="25.45" y="350.5" dy="0.35em" text-anchor="end" style="font-variant-numeric: tabular-nums" font-size="11" fill="#898781">0</text><text x="25.45" y="292.2" dy="0.35em" text-anchor="end" style="font-variant-numeric: tabular-nums" font-size="11" fill="#898781">50</text><text x="25.45" y="233.9" dy="0.35em" text-anchor="end" style="font-variant-numeric: tabular-nums" font-size="11" fill="#898781">100</text><text x="25.45" y="175.6" dy="0.35em" text-anchor="end" style="font-variant-numeric: tabular-nums" font-size="11" fill="#898781">150</text><text x="25.45" y="117.3" dy="0.35em" text-anchor="end" style="font-variant-numeric: tabular-nums" font-size="11" fill="#898781">200</text><text x="25.45" y="59" dy="0.35em" text-anchor="end" style="font-variant-numeric: tabular-nums" font-size="11" fill="#898781">250</text><text x="33.45" y="367.5" text-anchor="middle" font-size="11" fill="#898781">0</text><text x="159.56" y="367.5" text-anchor="middle" font-size="11" fill="#898781">20</text><text x="285.67" y="367.5" text-anchor="middle" font-size="11" fill="#898781">40</text><text x="411.78" y="367.5" text-anchor="middle" font-size="11" fill="#898781">60</text><text x="537.89" y="367.5" text-anchor="middle" font-size="11" fill="#898781">80</text><text x="664" y="367.5" text-anchor="middle" font-size="11" fill="#898781">100</text><text x="14" y="27" fill="#ffffff" font-size="15" font-weight="600">API latency distribution, ms</text><text x="14" y="45" fill="#c3c2b7" font-size="12">2,500 requests · Freedman–Diaconis binning</text><text x="14" y="390" font-size="10.5" fill="#898781">simulated data</text></svg>