<?xml version="1.0" encoding="UTF-8"?>
<svg xmlns="http://www.w3.org/2000/svg" viewBox="0 0 680 400" width="680" height="400" role="img" font-family='system-ui, -apple-system, "Segoe UI", Helvetica, Arial, sans-serif'><rect x="0" y="0" width="680" height="400" fill="#fcfcfb"/><title>Weekly active readers by region</title><line x1="33.45" x2="623.53" y1="350.5" y2="350.5" stroke="#e1e0d9" stroke-width="1"/><line x1="33.45" x2="623.53" y1="281.5" y2="281.5" stroke="#e1e0d9" stroke-width="1"/><line x1="33.45" x2="623.53" y1="213.5" y2="213.5" stroke="#e1e0d9" stroke-width="1"/><line x1="33.45" x2="623.53" y1="144.5" y2="144.5" stroke="#e1e0d9" stroke-width="1"/><line x1="33.45" x2="623.53" y1="76.5" y2="76.5" stroke="#e1e0d9" stroke-width="1"/><line x1="33.45" x2="623.53" y1="350.5" y2="350.5" stroke="#c3c2b7" stroke-width="1"/><defs><clipPath id="limnclip3"><rect x="27.45" y="70" width="597.08" height="286.5"/></clipPath></defs><g clip-path="url(#limnclip3)"><path d="M33.45 284.47 L46.16 282.23 L58.87 265.49 L71.58 257.49 L89.73 255.05 L102.44 251.58 L115.15 243.87 L127.86 242.4 L140.57 238.25 L153.28 231.37 L165.99 241.94 L178.7 241.64 L196.86 234.66 L209.57 242.73 L222.28 241.07 L234.99 232.5 L251.33 236.4 L264.04 240.02 L276.74 230.23 L289.45 229.1 L307.61 229.11 M333.03 209.11 L345.74 204.32 L362.08 197.47 L374.79 188.08 L387.5 173.3 L400.21 170.47 L418.36 154.96 L431.07 158.93 L443.78 144.14 L456.49 136.22 L474.65 135.76 L487.36 138.21 L500.07 134.91 L512.78 127.88 L529.12 129.93 L541.83 134.21 L554.54 132.35 L567.25 136.71 L598.11 132.13 L610.82 128.39 L623.53 133.78" fill="none" stroke="#2a78d6" stroke-width="2" stroke-linejoin="round" stroke-linecap="round"/><path d="M33.45 327 L46.16 329.14 L58.87 321.47 L71.58 310.64 L89.73 314.18 L102.44 300.48 L115.15 290.99 L127.86 297.19 L140.57 290.76 L153.28 284.45 L165.99 275.34 L178.7 274.02 L196.86 265.05 L209.57 263.36 L222.28 258.46 L234.99 250.26 L251.33 244.33 L264.04 238.19 L276.74 234.5 L289.45 222.14 L307.61 221.53 L320.32 219.41 L333.03 211.92 L345.74 208.42 L362.08 205.87 L374.79 198.51 L387.5 195.02 L400.21 181.07 L418.36 169.88 L431.07 170.82 L443.78 161.83 L456.49 155.26 L474.65 155.37 L487.36 148.93 L500.07 140.97 L512.78 135.66 L529.12 135.87 L541.83 121.75 L554.54 126.65 L567.25 116.86 L598.11 103.54 L610.82 100.54 L623.53 94.19" fill="none" stroke="#1baf7a" stroke-width="2" stroke-linejoin="round" stroke-linecap="round"/><path d="M33.45 238.56 L46.16 237.2 L58.87 232.67 L71.58 230.76 L89.73 232.56 L102.44 232.81 L115.15 231.27 L127.86 230.4 L140.57 234.96 L153.28 238.91 L165.99 237.78 L178.7 239.87 L196.86 235.45 L209.57 231.81 L222.28 239.79 L234.99 236.14 L251.33 233.81 L264.04 225.89 L276.74 227.62 L289.45 224.14 L307.61 221.67 L320.32 213.61 L333.03 216.35 L345.74 205.55 L362.08 206.87 L374.79 199.9 L387.5 195.03 L400.21 191.3 L418.36 187.82 L431.07 183.91 L443.78 187.92 L456.49 182.57 L474.65 181.58 L487.36 176.03 L500.07 178.52 L512.78 178.9 L529.12 182.52 L541.83 174.88 L554.54 179.81 L567.25 182.17 L598.11 176.35 L610.82 182.57 L623.53 177.24" fill="none" stroke="#eda100" stroke-width="2" stroke-linejoin="round" stroke-linecap="round"/></g><text x="25.45" y="350.5" dy="0.35em" text-anchor="end" style="font-variant-numeric: tabular-nums" font-size="11" fill="#898781">150</text><text x="25.45" y="281.88" dy="0.35em" text-anchor="end" style="font-variant-numeric: tabular-nums" font-size="11" fill="#898781">250</text><text x="25.45" y="213.25" dy="0.35em" text-anchor="end" style="font-variant-numeric: tabular-nums" font-size="11" fill="#898781">350</text><text x="25.45" y="144.62" dy="0.35em" text-anchor="end" style="font-variant-numeric: tabular-nums" font-size="11" fill="#898781">450</text><text x="25.45" y="76" dy="0.35em" text-anchor="end" style="font-variant-numeric: tabular-nums" font-size="11" fill="#898781">550</text><text x="33.45" y="367.5" text-anchor="middle" font-size="11" fill="#898781">Jan 2025</text><text x="140.57" y="367.5" text-anchor="middle" font-size="11" fill="#898781">Mar</text><text x="251.33" y="367.5" text-anchor="middle" font-size="11" fill="#898781">May</text><text x="362.08" y="367.5" text-anchor="middle" font-size="11" fill="#898781">Jul</text><text x="474.65" y="367.5" text-anchor="middle" font-size="11" fill="#898781">Sep</text><text x="585.4" y="367.5" text-anchor="middle" font-size="11" fill="#898781">Nov</text><text x="14" y="27" fill="#0b0b0b" font-size="15" font-weight="600">Weekly active readers by region</text><text x="14" y="45" fill="#52514e" font-size="12">missing week shown as a gap, not interpolated away</text><rect x="14" y="56" width="10" height="10" rx="2" fill="#2a78d6"/><text x="29" y="65" fill="#52514e" font-size="11">North</text><rect x="73.51" y="56" width="10" height="10" rx="2" fill="#1baf7a"/><text x="88.51" y="65" fill="#52514e" font-size="11">South</text><rect x="134.98" y="56" width="10" height="10" rx="2" fill="#eda100"/><text x="149.98" y="65" fill="#52514e" font-size="11">East</text><line x1="627.53" x2="635.53" y1="94.19" y2="94.19" stroke="#1baf7a" stroke-width="2.5"/><text x="639.53" y="94.19" dy="0.35em" fill="#52514e" font-size="11">South</text><line x1="627.53" x2="635.53" y1="133.78" y2="133.78" stroke="#2a78d6" stroke-width="2.5"/><text x="639.53" y="133.78" dy="0.35em" fill="#52514e" font-size="11">North</text><line x1="627.53" x2="635.53" y1="177.24" y2="177.24" stroke="#eda100" stroke-width="2.5"/><text x="639.53" y="177.24" dy="0.35em" fill="#52514e" font-size="11">East</text><text x="14" y="390" font-size="10.5" fill="#898781">simulated data</text></svg>