<?xml version="1.0" encoding="UTF-8"?>
<svg xmlns="http://www.w3.org/2000/svg" viewBox="0 0 680 400" width="680" height="400" role="img" font-family='system-ui, -apple-system, "Segoe UI", Helvetica, Arial, sans-serif'><rect x="0" y="0" width="680" height="400" fill="#1a1a19"/><title>Straight from the export</title><line x1="46.4" x2="611.87" y1="350.5" y2="350.5" stroke="#2c2c2a" stroke-width="1"/><line x1="46.4" x2="611.87" y1="259.5" y2="259.5" stroke="#2c2c2a" stroke-width="1"/><line x1="46.4" x2="611.87" y1="167.5" y2="167.5" stroke="#2c2c2a" stroke-width="1"/><line x1="46.4" x2="611.87" y1="76.5" y2="76.5" stroke="#2c2c2a" stroke-width="1"/><line x1="46.4" x2="611.87" y1="350.5" y2="350.5" stroke="#383835" stroke-width="1"/><defs><clipPath id="limnclip2"><rect x="40.4" y="70" width="577.47" height="286.5"/></clipPath></defs><g clip-path="url(#limnclip2)"><path d="M46.4 257.63 L162.49 225.18 L267.35 166.8 L383.44 171.16 L495.78 133.72 L611.87 92.71" fill="none" stroke="#3987e5" stroke-width="2" stroke-linejoin="round" stroke-linecap="round"/><circle cx="46.4" cy="257.63" r="3.5" fill="#3987e5" stroke="#1a1a19" stroke-width="2"/><circle cx="162.49" cy="225.18" r="3.5" fill="#3987e5" stroke="#1a1a19" stroke-width="2"/><circle cx="267.35" cy="166.8" r="3.5" fill="#3987e5" stroke="#1a1a19" stroke-width="2"/><circle cx="383.44" cy="171.16" r="3.5" fill="#3987e5" stroke="#1a1a19" stroke-width="2"/><circle cx="495.78" cy="133.72" r="3.5" fill="#3987e5" stroke="#1a1a19" stroke-width="2"/><circle cx="611.87" cy="92.71" r="3.5" fill="#3987e5" stroke="#1a1a19" stroke-width="2"/><path d="M46.4 326.07 L162.49 316.83 L267.35 292.31 L383.44 283.25 L495.78 265.01 L611.87 246.53" fill="none" stroke="#eda100" stroke-width="2" stroke-linejoin="round" stroke-linecap="round"/><circle cx="46.4" cy="326.07" r="3.5" fill="#eda100" stroke="#1a1a19" stroke-width="2"/><circle cx="162.49" cy="316.83" r="3.5" fill="#eda100" stroke="#1a1a19" stroke-width="2"/><circle cx="267.35" cy="292.31" r="3.5" fill="#eda100" stroke="#1a1a19" stroke-width="2"/><circle cx="383.44" cy="283.25" r="3.5" fill="#eda100" stroke="#1a1a19" stroke-width="2"/><circle cx="495.78" cy="265.01" r="3.5" fill="#eda100" stroke="#1a1a19" stroke-width="2"/><circle cx="611.87" cy="246.53" r="3.5" fill="#eda100" stroke="#1a1a19" stroke-width="2"/></g><text x="38.4" y="350.5" dy="0.35em" text-anchor="end" style="font-variant-numeric: tabular-nums" font-size="11" fill="#9c9a93">$0.9M</text><text x="38.4" y="259" dy="0.35em" text-anchor="end" style="font-variant-numeric: tabular-nums" font-size="11" fill="#9c9a93">$1.2M</text><text x="38.4" y="167.5" dy="0.35em" text-anchor="end" style="font-variant-numeric: tabular-nums" font-size="11" fill="#9c9a93">$1.5M</text><text x="38.4" y="76" dy="0.35em" text-anchor="end" style="font-variant-numeric: tabular-nums" font-size="11" fill="#9c9a93">$1.8M</text><text x="46.4" y="367.5" text-anchor="middle" font-size="11" fill="#9c9a93">Jan 2026</text><text x="162.49" y="367.5" text-anchor="middle" font-size="11" fill="#9c9a93">Feb</text><text x="267.35" y="367.5" text-anchor="middle" font-size="11" fill="#9c9a93">Mar</text><text x="383.44" y="367.5" text-anchor="middle" font-size="11" fill="#9c9a93">Apr</text><text x="495.78" y="367.5" text-anchor="middle" font-size="11" fill="#9c9a93">May</text><text x="611.87" y="367.5" text-anchor="middle" font-size="11" fill="#9c9a93">Jun</text><text x="14" y="27" fill="#ffffff" font-size="15" font-weight="600">Straight from the export</text><text x="14" y="44" fill="#c3c2b7" font-size="12">input: "$1,204,500" · "N/A" · "18.6%" — zero cleaning</text><rect x="14" y="53" width="10" height="10" rx="2" fill="#3987e5"/><text x="29" y="62" fill="#c3c2b7" font-size="11">revenue</text><rect x="87.13" y="53" width="10" height="10" rx="2" fill="#eda100"/><text x="102.13" y="62" fill="#c3c2b7" font-size="11">costs</text><line x1="615.87" x2="623.87" y1="92.71" y2="92.71" stroke="#3987e5" stroke-width="2.5"/><text x="627.87" y="92.71" dy="0.35em" fill="#c3c2b7" font-size="11">revenue</text><line x1="615.87" x2="623.87" y1="246.53" y2="246.53" stroke="#eda100" stroke-width="2.5"/><text x="627.87" y="246.53" dy="0.35em" fill="#c3c2b7" font-size="11">costs</text><text x="14" y="390" font-size="10.5" fill="#9c9a93">source: finance CSV, ingested as-is</text></svg>