<?xml version="1.0" encoding="UTF-8"?>
<svg xmlns="http://www.w3.org/2000/svg" viewBox="0 0 680 400" width="680" height="400" role="img" font-family='system-ui, -apple-system, "Segoe UI", Helvetica, Arial, sans-serif'><rect x="0" y="0" width="680" height="400" fill="#fcfcfb"/><title>Wealth and longevity</title><line x1="26.97" x2="664" y1="333.5" y2="333.5" stroke="#e1e0d9" stroke-width="1"/><line x1="26.97" x2="664" y1="269.5" y2="269.5" stroke="#e1e0d9" stroke-width="1"/><line x1="26.97" x2="664" y1="204.5" y2="204.5" stroke="#e1e0d9" stroke-width="1"/><line x1="26.97" x2="664" y1="140.5" y2="140.5" stroke="#e1e0d9" stroke-width="1"/><line x1="26.97" x2="664" y1="76.5" y2="76.5" stroke="#e1e0d9" stroke-width="1"/><line x1="26.97" x2="664" y1="333.5" y2="333.5" stroke="#c3c2b7" stroke-width="1"/><defs><clipPath id="limnclip11"><rect x="20.97" y="70" width="649.03" height="269.5"/></clipPath></defs><g clip-path="url(#limnclip11)"><circle cx="71.56" cy="197.67" r="4.53" fill="#2a78d6" fill-opacity="0.75" stroke="#fcfcfb" stroke-width="2"/><circle cx="101.29" cy="159.04" r="7.19" fill="#2a78d6" fill-opacity="0.75" stroke="#fcfcfb" stroke-width="2"/><circle cx="84.3" cy="195.09" r="3.95" fill="#2a78d6" fill-opacity="0.75" stroke="#fcfcfb" stroke-width="2"/><circle cx="214.54" cy="127.5" r="4.32" fill="#2a78d6" fill-opacity="0.75" stroke="#fcfcfb" stroke-width="2"/><circle cx="85.01" cy="185.44" r="3.88" fill="#2a78d6" fill-opacity="0.75" stroke="#fcfcfb" stroke-width="2"/><circle cx="327.79" cy="113.98" r="3" fill="#2a78d6" fill-opacity="0.75" stroke="#fcfcfb" stroke-width="2"/><circle cx="77.22" cy="175.78" r="4.2" fill="#2a78d6" fill-opacity="0.75" stroke="#fcfcfb" stroke-width="2"/><circle cx="65.19" cy="192.52" r="10.27" fill="#2a78d6" fill-opacity="0.75" stroke="#fcfcfb" stroke-width="2"/><circle cx="65.9" cy="214.41" r="7.65" fill="#2a78d6" fill-opacity="0.75" stroke="#fcfcfb" stroke-width="2"/><circle cx="125.35" cy="152.61" r="4.97" fill="#2a78d6" fill-opacity="0.75" stroke="#fcfcfb" stroke-width="2"/><circle cx="89.25" cy="172.56" r="4.68" fill="#2a78d6" fill-opacity="0.75" stroke="#fcfcfb" stroke-width="2"/><circle cx="179.85" cy="139.73" r="4.32" fill="#2a78d6" fill-opacity="0.75" stroke="#fcfcfb" stroke-width="2"/><circle cx="53.86" cy="221.49" r="3" fill="#2a78d6" fill-opacity="0.75" stroke="#fcfcfb" stroke-width="2"/><circle cx="86.42" cy="169.34" r="6.5" fill="#2a78d6" fill-opacity="0.75" stroke="#fcfcfb" stroke-width="2"/><circle cx="64.48" cy="193.81" r="7.45" fill="#2a78d6" fill-opacity="0.75" stroke="#fcfcfb" stroke-width="2"/><circle cx="82.18" cy="198.31" r="4.54" fill="#2a78d6" fill-opacity="0.75" stroke="#fcfcfb" stroke-width="2"/><circle cx="39.71" cy="253.03" r="5.25" fill="#2a78d6" fill-opacity="0.75" stroke="#fcfcfb" stroke-width="2"/><circle cx="117.57" cy="173.21" r="4.82" fill="#2a78d6" fill-opacity="0.75" stroke="#fcfcfb" stroke-width="2"/><circle cx="102.7" cy="166.12" r="8.73" fill="#2a78d6" fill-opacity="0.75" stroke="#fcfcfb" stroke-width="2"/><circle cx="116.15" cy="166.12" r="5.16" fill="#2a78d6" fill-opacity="0.75" stroke="#fcfcfb" stroke-width="2"/><circle cx="77.22" cy="191.23" r="5.38" fill="#2a78d6" fill-opacity="0.75" stroke="#fcfcfb" stroke-width="2"/><circle cx="109.07" cy="157.11" r="3.83" fill="#2a78d6" fill-opacity="0.75" stroke="#fcfcfb" stroke-width="2"/><circle cx="109.07" cy="170.63" r="5.58" fill="#2a78d6" fill-opacity="0.75" stroke="#fcfcfb" stroke-width="2"/><circle cx="64.48" cy="187.37" r="4.47" fill="#2a78d6" fill-opacity="0.75" stroke="#fcfcfb" stroke-width="2"/><circle cx="92.08" cy="182.86" r="4.08" fill="#2a78d6" fill-opacity="0.75" stroke="#fcfcfb" stroke-width="2"/><circle cx="102.7" cy="164.19" r="5.79" fill="#2a78d6" fill-opacity="0.75" stroke="#fcfcfb" stroke-width="2"/><circle cx="253.47" cy="139.73" r="7.05" fill="#854d0e" fill-opacity="0.75" stroke="#fcfcfb" stroke-width="2"/><circle cx="240.02" cy="151.32" r="3.42" fill="#854d0e" fill-opacity="0.75" stroke="#fcfcfb" stroke-width="2"/><circle cx="269.75" cy="148.1" r="3.81" fill="#854d0e" fill-opacity="0.75" stroke="#fcfcfb" stroke-width="2"/><circle cx="313.63" cy="120.42" r="6.58" fill="#854d0e" fill-opacity="0.75" stroke="#fcfcfb" stroke-width="2"/><circle cx="348.31" cy="130.08" r="5.62" fill="#854d0e" fill-opacity="0.75" stroke="#fcfcfb" stroke-width="2"/><circle cx="334.87" cy="127.5" r="4.38" fill="#854d0e" fill-opacity="0.75" stroke="#fcfcfb" stroke-width="2"/><circle cx="208.17" cy="144.88" r="4.49" fill="#854d0e" fill-opacity="0.75" stroke="#fcfcfb" stroke-width="2"/><circle cx="152.96" cy="155.83" r="4.35" fill="#854d0e" fill-opacity="0.75" stroke="#fcfcfb" stroke-width="2"/><circle cx="479.97" cy="97.89" r="5.38" fill="#854d0e" fill-opacity="0.75" stroke="#fcfcfb" stroke-width="2"/><circle cx="419.1" cy="102.39" r="6.34" fill="#854d0e" fill-opacity="0.75" stroke="#fcfcfb" stroke-width="2"/><circle cx="246.39" cy="153.89" r="5.44" fill="#854d0e" fill-opacity="0.75" stroke="#fcfcfb" stroke-width="2"/><circle cx="240.02" cy="148.74" r="4.97" fill="#854d0e" fill-opacity="0.75" stroke="#fcfcfb" stroke-width="2"/><circle cx="365.3" cy="104.97" r="4.69" fill="#854d0e" fill-opacity="0.75" stroke="#fcfcfb" stroke-width="2"/><circle cx="607.37" cy="90.81" r="6.43" fill="#854d0e" fill-opacity="0.75" stroke="#fcfcfb" stroke-width="2"/><circle cx="54.57" cy="251.74" r="3.47" fill="#009e73" fill-opacity="0.75" stroke="#fcfcfb" stroke-width="2"/><circle cx="51.74" cy="240.8" r="3.86" fill="#009e73" fill-opacity="0.75" stroke="#fcfcfb" stroke-width="2"/><circle cx="34.75" cy="293.59" r="5.84" fill="#009e73" fill-opacity="0.75" stroke="#fcfcfb" stroke-width="2"/><circle cx="50.32" cy="240.16" r="7.61" fill="#009e73" fill-opacity="0.75" stroke="#fcfcfb" stroke-width="2"/><circle cx="43.95" cy="267.84" r="6.78" fill="#009e73" fill-opacity="0.75" stroke="#fcfcfb" stroke-width="2"/><circle cx="49.62" cy="249.81" r="4.92" fill="#009e73" fill-opacity="0.75" stroke="#fcfcfb" stroke-width="2"/><circle cx="74.39" cy="213.12" r="3.88" fill="#009e73" fill-opacity="0.75" stroke="#fcfcfb" stroke-width="2"/><circle cx="43.95" cy="260.76" r="5.1" fill="#009e73" fill-opacity="0.75" stroke="#fcfcfb" stroke-width="2"/><circle cx="39" cy="274.92" r="4.21" fill="#009e73" fill-opacity="0.75" stroke="#fcfcfb" stroke-width="2"/><circle cx="46.78" cy="263.33" r="5.5" fill="#009e73" fill-opacity="0.75" stroke="#fcfcfb" stroke-width="2"/><circle cx="85.71" cy="200.24" r="8.95" fill="#009e73" fill-opacity="0.75" stroke="#fcfcfb" stroke-width="2"/><circle cx="38.29" cy="262.04" r="7.11" fill="#009e73" fill-opacity="0.75" stroke="#fcfcfb" stroke-width="2"/><circle cx="41.12" cy="260.11" r="5.02" fill="#009e73" fill-opacity="0.75" stroke="#fcfcfb" stroke-width="2"/><circle cx="58.82" cy="244.02" r="4.97" fill="#009e73" fill-opacity="0.75" stroke="#fcfcfb" stroke-width="2"/><circle cx="46.08" cy="257.54" r="4.38" fill="#009e73" fill-opacity="0.75" stroke="#fcfcfb" stroke-width="2"/><circle cx="67.31" cy="218.27" r="3.69" fill="#009e73" fill-opacity="0.75" stroke="#fcfcfb" stroke-width="2"/><circle cx="31.21" cy="314.83" r="5.68" fill="#009e73" fill-opacity="0.75" stroke="#fcfcfb" stroke-width="2"/><circle cx="37.58" cy="291.66" r="5.63" fill="#009e73" fill-opacity="0.75" stroke="#fcfcfb" stroke-width="2"/><circle cx="58.11" cy="231.14" r="5.4" fill="#009e73" fill-opacity="0.75" stroke="#fcfcfb" stroke-width="2"/><circle cx="85.01" cy="200.89" r="5.63" fill="#009e73" fill-opacity="0.75" stroke="#fcfcfb" stroke-width="2"/><circle cx="45.37" cy="267.84" r="5.17" fill="#009e73" fill-opacity="0.75" stroke="#fcfcfb" stroke-width="2"/><circle cx="134.55" cy="167.41" r="5.67" fill="#009e73" fill-opacity="0.75" stroke="#fcfcfb" stroke-width="2"/><circle cx="43.95" cy="253.03" r="9.58" fill="#009e73" fill-opacity="0.75" stroke="#fcfcfb" stroke-width="2"/><circle cx="34.75" cy="292.3" r="4.46" fill="#009e73" fill-opacity="0.75" stroke="#fcfcfb" stroke-width="2"/><circle cx="65.19" cy="239.51" r="4.97" fill="#009e73" fill-opacity="0.75" stroke="#fcfcfb" stroke-width="2"/><circle cx="53.16" cy="238.23" r="5.46" fill="#009e73" fill-opacity="0.75" stroke="#fcfcfb" stroke-width="2"/><circle cx="43.25" cy="275.56" r="4.49" fill="#009e73" fill-opacity="0.75" stroke="#fcfcfb" stroke-width="2"/><circle cx="44.66" cy="267.84" r="11" fill="#009e73" fill-opacity="0.75" stroke="#fcfcfb" stroke-width="2"/><circle cx="51.74" cy="237.58" r="5.63" fill="#009e73" fill-opacity="0.75" stroke="#fcfcfb" stroke-width="2"/><circle cx="47.49" cy="247.88" r="7.47" fill="#009e73" fill-opacity="0.75" stroke="#fcfcfb" stroke-width="2"/></g><text x="18.97" y="333.5" dy="0.35em" text-anchor="end" style="font-variant-numeric: tabular-nums" font-size="11" fill="#75736d">45</text><text x="18.97" y="269.12" dy="0.35em" text-anchor="end" style="font-variant-numeric: tabular-nums" font-size="11" fill="#75736d">55</text><text x="18.97" y="204.75" dy="0.35em" text-anchor="end" style="font-variant-numeric: tabular-nums" font-size="11" fill="#75736d">65</text><text x="18.97" y="140.38" dy="0.35em" text-anchor="end" style="font-variant-numeric: tabular-nums" font-size="11" fill="#75736d">75</text><text x="18.97" y="76" dy="0.35em" text-anchor="end" style="font-variant-numeric: tabular-nums" font-size="11" fill="#75736d">85</text><text x="26.97" y="350.5" text-anchor="middle" font-size="11" fill="#75736d">0</text><text x="97.75" y="350.5" text-anchor="middle" font-size="11" fill="#75736d">10</text><text x="168.53" y="350.5" text-anchor="middle" font-size="11" fill="#75736d">20</text><text x="239.31" y="350.5" text-anchor="middle" font-size="11" fill="#75736d">30</text><text x="310.09" y="350.5" text-anchor="middle" font-size="11" fill="#75736d">40</text><text x="380.87" y="350.5" text-anchor="middle" font-size="11" fill="#75736d">50</text><text x="451.66" y="350.5" text-anchor="middle" font-size="11" fill="#75736d">60</text><text x="522.44" y="350.5" text-anchor="middle" font-size="11" fill="#75736d">70</text><text x="593.22" y="350.5" text-anchor="middle" font-size="11" fill="#75736d">80</text><text x="664" y="350.5" text-anchor="middle" font-size="11" fill="#75736d">90</text><text x="14" y="27" fill="#0b0b0b" font-size="15" font-weight="600">Wealth and longevity</text><text x="14" y="44" fill="#52514e" font-size="12">dot area scales with population; GDP per capita in $k</text><rect x="14" y="53" width="10" height="10" rx="2" fill="#2a78d6"/><text x="29" y="62" fill="#52514e" font-size="11">Asia</text><rect x="67.68" y="53" width="10" height="10" rx="2" fill="#854d0e"/><text x="82.68" y="62" fill="#52514e" font-size="11">Europe</text><rect x="136.27" y="53" width="10" height="10" rx="2" fill="#009e73"/><text x="151.27" y="62" fill="#52514e" font-size="11">Africa</text><text x="345.48" y="367.5" text-anchor="middle" font-size="11" fill="#75736d">GDP per capita ($k)</text><text x="14" y="390" font-size="10.5" fill="#75736d">simulated data</text></svg>